<svg xmlns="http://www.w3.org/2000/svg" xmlns:xlink="http://www.w3.org/1999/xlink" viewBox="0 0 400 300"><defs><style>.cls-1{fill:#fff}.cls-2{fill:#404041}.cls-3{fill:url(#linear-gradient)}.cls-4{fill:url(#linear-gradient-2)}.cls-5{fill:url(#linear-gradient-3)}.cls-6{fill:url(#linear-gradient-4)}.cls-7{fill:url(#linear-gradient-5)}.cls-8{fill:url(#linear-gradient-6)}.cls-9{fill:url(#linear-gradient-7)}.cls-10{fill:url(#linear-gradient-8)}.cls-11{fill:url(#linear-gradient-9)}.cls-12{fill:url(#linear-gradient-10)}.cls-13{fill:url(#linear-gradient-11)}.cls-14{fill:url(#linear-gradient-12)}.cls-15{fill:url(#linear-gradient-13)}.cls-16{fill:url(#linear-gradient-14)}.cls-17{fill:url(#linear-gradient-15)}.cls-18{fill:url(#linear-gradient-16)}.cls-19{fill:url(#linear-gradient-17)}.cls-20{fill:url(#linear-gradient-18)}.cls-21{fill:url(#linear-gradient-19)}.cls-22{fill:url(#linear-gradient-20)}.cls-23{fill:url(#linear-gradient-21)}.cls-24{fill:url(#linear-gradient-22)}.cls-25{fill:url(#linear-gradient-23)}.cls-26{fill:url(#linear-gradient-24)}</style><linearGradient id="linear-gradient" x1="167.08" y1="108.88" x2="277.88" y2="108.88" gradientUnits="userSpaceOnUse"><stop offset="0" stop-color="#fff" stop-opacity=".7"/><stop offset=".08" stop-color="#fff" stop-opacity=".65"/><stop offset=".22" stop-color="#fff" stop-opacity=".51"/><stop offset=".42" stop-color="#fff" stop-opacity=".29"/><stop offset=".5" stop-color="#fff" stop-opacity=".2"/><stop offset=".58" stop-color="#fff" stop-opacity=".38"/><stop offset=".68" stop-color="#fff" stop-opacity=".56"/><stop offset=".77" stop-color="#fff" stop-opacity=".71"/><stop offset=".86" stop-color="#fff" stop-opacity=".81"/><stop offset=".94" stop-color="#fff" stop-opacity=".88"/><stop offset="1" stop-color="#fff" stop-opacity=".9"/></linearGradient><linearGradient id="linear-gradient-2" x1="-782.56" y1="287.62" x2="-671.76" y2="287.62" gradientTransform="rotate(180 -274.82 198.25)" xlink:href="#linear-gradient"/><linearGradient id="linear-gradient-3" x1="174.38" y1="234.97" x2="285.18" y2="234.97" gradientTransform="rotate(-15 -275.217 199.607)" xlink:href="#linear-gradient"/><linearGradient id="linear-gradient-4" x1="-789.19" y1="161.85" x2="-678.39" y2="161.85" gradientTransform="rotate(165 -274.636 198.303)" xlink:href="#linear-gradient"/><linearGradient id="linear-gradient-5" x1="148.23" y1="358.56" x2="259.03" y2="358.56" gradientTransform="rotate(-30 -275.316 198.53)" xlink:href="#linear-gradient"/><linearGradient id="linear-gradient-6" x1="-763.57" y1="38.52" x2="-652.77" y2="38.52" gradientTransform="rotate(150 -274.745 198.383)" xlink:href="#linear-gradient"/><linearGradient id="linear-gradient-7" x1="91.28" y1="470.88" x2="202.08" y2="470.88" gradientTransform="rotate(-45 -274.875 198.387)" xlink:href="#linear-gradient"/><linearGradient id="linear-gradient-8" x1="-706.61" y1="-74.22" x2="-595.81" y2="-74.22" gradientTransform="rotate(135 -274.763 198.273)" xlink:href="#linear-gradient"/><linearGradient id="linear-gradient-9" x1="7.36" y1="564.86" x2="118.16" y2="564.86" gradientTransform="rotate(-60 -274.747 198.535)" xlink:href="#linear-gradient"/><linearGradient id="linear-gradient-10" x1="-622.28" y1="-168.19" x2="-511.48" y2="-168.19" gradientTransform="rotate(120 -274.655 198.208)" xlink:href="#linear-gradient"/><linearGradient id="linear-gradient-11" x1="-98.38" y1="634.12" x2="12.42" y2="634.12" gradientTransform="rotate(-75 -274.965 198.515)" xlink:href="#linear-gradient"/><linearGradient id="linear-gradient-12" x1="-516.82" y1="-236.93" x2="-406.02" y2="-236.93" gradientTransform="rotate(105 -274.611 198.365)" xlink:href="#linear-gradient"/><linearGradient id="linear-gradient-13" x1="-218.37" y1="673.07" x2="-107.57" y2="673.07" gradientTransform="rotate(-90 -274.82 198.25)" xlink:href="#linear-gradient"/><linearGradient id="linear-gradient-14" x1="-397.11" y1="-276.57" x2="-286.31" y2="-276.57" gradientTransform="rotate(90 -274.82 198.25)" xlink:href="#linear-gradient"/><linearGradient id="linear-gradient-15" x1="-343.97" y1="680.19" x2="-233.16" y2="680.19" gradientTransform="rotate(-105 -274.708 198.454)" xlink:href="#linear-gradient"/><linearGradient id="linear-gradient-16" x1="-270.84" y1="-283.38" x2="-160.04" y2="-283.38" gradientTransform="rotate(75 -274.554 198.104)" xlink:href="#linear-gradient"/><linearGradient id="linear-gradient-17" x1="-467.69" y1="654.43" x2="-356.89" y2="654.43" gradientTransform="rotate(-120 -274.866 198.414)" xlink:href="#linear-gradient"/><linearGradient id="linear-gradient-18" x1="-147.65" y1="-257.36" x2="-36.85" y2="-257.36" gradientTransform="rotate(60 -274.536 198.33)" xlink:href="#linear-gradient"/><linearGradient id="linear-gradient-19" x1="-580.22" y1="597.28" x2="-469.42" y2="597.28" gradientTransform="rotate(-135 -274.796 198.306)" xlink:href="#linear-gradient"/><linearGradient id="linear-gradient-20" x1="-35.11" y1="-200.62" x2="75.69" y2="-200.62" gradientTransform="rotate(45 -274.684 198.192)" xlink:href="#linear-gradient"/><linearGradient id="linear-gradient-21" x1="-673.98" y1="513.15" x2="-563.18" y2="513.15" gradientTransform="rotate(-150 -274.689 198.328)" xlink:href="#linear-gradient"/><linearGradient id="linear-gradient-22" x1="59.07" y1="-116.49" x2="169.86" y2="-116.49" gradientTransform="rotate(30 -274.53 197.76)" xlink:href="#linear-gradient"/><linearGradient id="linear-gradient-23" x1="-743.13" y1="407.82" x2="-632.32" y2="407.82" gradientTransform="rotate(-165 -274.767 198.433)" xlink:href="#linear-gradient"/><linearGradient id="linear-gradient-24" x1="127.92" y1="-10.63" x2="238.72" y2="-10.63" gradientTransform="rotate(15 -273.466 197.853)" xlink:href="#linear-gradient"/></defs><title>vrenetic-logo-negative</title><g id="Layer_1" data-name="Layer 1"><path class="cls-1" d="M83.41 220.77l-10.85 38.38a5.72 5.72 0 0 1-6 4.48 5.76 5.76 0 0 1-6-4.48l-10.94-38.38a.75.75 0 0 1-.06-.35 1 1 0 0 1 1.06-1H54a1.19 1.19 0 0 1 1.06.88l10.26 37.56c.24.83.53 1.24 1.18 1.24s.88-.41 1.12-1.24L78 220.3a1.12 1.12 0 0 1 1-.88h3.48a1 1 0 0 1 1 1 .75.75 0 0 1-.07.35zm41.74 42.45h-3.77c-.71 0-1.06 0-1.53-.77l-10.55-17.57h-1.53c-1.95 0-3.36-.06-6.49-.18V262a1.12 1.12 0 0 1-1.06 1.18H97a1.12 1.12 0 0 1-1-1.18v-41.23c0-.83.35-1.18 1.42-1.3 2.54-.29 7-.47 10.38-.47 9.32 0 16.51 3.13 16.51 12.68v.41c0 6.6-3.89 10.5-9.26 11.91l10.73 17.92a1 1 0 0 1 .18.53.74.74 0 0 1-.81.77zM119 231.68c0-5.9-3.83-7.84-11.2-7.84-1.83 0-5.07 0-6.49.18v16.15c2.59.06 5.13.12 6.49.12 7.25 0 11.2-1.83 11.2-8.2z"/><path class="cls-2" d="M163.95 263.34c-2.24.24-8 .29-11.5.29-8.25 0-12.56-3.12-12.56-11V230c0-7.84 4.3-11 12.56-11 3.48 0 9 .12 11.5.35a.83.83 0 0 1 .59.83v2.95a.64.64 0 0 1-.65.71h-11.38c-6.25 0-7.25 1.65-7.25 6.13v8.2h18.1a1.18 1.18 0 0 1 1.18 1.18v2.24a1.18 1.18 0 0 1-1.18 1.18h-18.1v9.91c0 4.48 1 6.13 7.25 6.13h11.38a.64.64 0 0 1 .65.71v3a.83.83 0 0 1-.59.82zm47.05-.12h-3.66a2 2 0 0 1-1.89-.94l-18.22-34.61c-.06-.12-.12-.18-.18-.18s-.06.06-.06.18v34.43a1.11 1.11 0 0 1-1.06 1.12h-3.07c-.59 0-1.06-.12-1.06-.71v-41.45a1.66 1.66 0 0 1 1.71-1.65h3.24c1.65 0 1.95.29 2.42 1.18L207.28 255l.12.18c.06 0 .06-.12.06-.18v-34.47a1.11 1.11 0 0 1 1.06-1.12h3.12a1.07 1.07 0 0 1 1.06 1.12v41a1.71 1.71 0 0 1-1.7 1.69zm40.86.12c-2.24.24-8 .29-11.5.29-8.25 0-12.56-3.12-12.56-11V230c0-7.84 4.3-11 12.56-11 3.48 0 9 .12 11.5.35a.83.83 0 0 1 .59.83v2.95a.64.64 0 0 1-.65.71h-11.38c-6.25 0-7.25 1.65-7.25 6.13v8.2h18.1a1.18 1.18 0 0 1 1.18 1.18v2.24a1.18 1.18 0 0 1-1.18 1.18h-18.1v9.91c0 4.48 1 6.13 7.25 6.13h11.38a.64.64 0 0 1 .65.71v3a.83.83 0 0 1-.59.82zM293.19 224h-11.5v38a1.12 1.12 0 0 1-1.06 1.18h-3.24a1.12 1.12 0 0 1-1.06-1.18v-38h-11.5c-.65 0-1.18-.29-1.18-.94v-2.59a1.12 1.12 0 0 1 1.18-1.06h28.36a1 1 0 0 1 1.12 1.06v2.59c0 .6-.48.94-1.12.94zm16.21 39.22h-3.24a1.12 1.12 0 0 1-1.06-1.22v-41.47a1.07 1.07 0 0 1 1.06-1.12h3.24a1.07 1.07 0 0 1 1.06 1.12V262a1.12 1.12 0 0 1-1.06 1.22zm39.86-.35a46.47 46.47 0 0 1-9.79.77c-7.25 0-15.57-3.89-15.57-18.22v-8.2c0-14.45 8.31-18.22 15.57-18.22a63.46 63.46 0 0 1 9.91.94c.53.06.94.24.94.77v3c0 .35-.12.65-.71.65h-.18c-2.12-.18-6.49-.53-9.91-.53-5.78 0-10.26 3.36-10.26 13.38v8.2c0 9.91 4.48 13.38 10.26 13.38 3.36 0 7.61-.29 9.73-.47h.24a.82.82 0 0 1 .94.94v2.42c.01.71-.52 1.07-1.17 1.19z"/><path class="cls-3" d="M217.86 150.21c-15.67 0-28.74-4.18-37.79-12.08a38.18 38.18 0 0 1-13-29.25 38.18 38.18 0 0 1 13-29.25c9.05-7.91 22.12-12.08 37.79-12.08 33.09 0 60 18.54 60 41.34s-26.86 41.32-60 41.32zm0-81.67c-30.24 0-49.78 15.83-49.78 40.34s19.54 40.34 49.78 40.34c32.54 0 59-18.09 59-40.34s-26.46-40.34-59-40.34z"/><path class="cls-4" d="M182.14 150.21c-33.09 0-60-18.54-60-41.34s26.92-41.34 60-41.34c15.67 0 28.74 4.18 37.79 12.08a38.18 38.18 0 0 1 13 29.25 38.18 38.18 0 0 1-13 29.25c-9.04 7.89-22.11 12.1-37.79 12.1zm0-81.67c-32.54 0-59 18.09-59 40.34s26.48 40.34 59 40.34c30.24 0 49.78-15.83 49.78-40.34s-19.54-40.34-49.78-40.34z"/><path class="cls-5" d="M209.25 146.81a47.19 47.19 0 0 1-20.93-4.52 38.19 38.19 0 0 1-20.12-24.89 38.18 38.18 0 0 1 5-31.62c6.7-10 18.24-17.4 33.38-21.46 15.45-4.14 31.1-3.9 44 .67s21.76 13 24.63 23.72c5.9 22-15.31 46.9-47.28 55.46a72.54 72.54 0 0 1-18.68 2.64zm19.1-84.42a83.47 83.47 0 0 0-21.53 2.91c-29.21 7.83-44 28.18-37.64 51.84s29.31 33.91 58.52 26.08c31.42-8.43 52.3-32.76 46.56-54.22-2.78-10.37-11.3-18.55-24-23a66 66 0 0 0-21.92-3.61z"/><path class="cls-6" d="M171.66 156.37a67 67 0 0 1-22.25-3.61c-13-4.6-21.76-13-24.63-23.72s.5-22.37 9.47-32.86 22.35-18.46 37.81-22.6c15.14-4.06 28.85-3.4 39.63 1.89A39.44 39.44 0 0 1 226.83 132c-6.7 10-18.24 17.4-33.38 21.46a84.51 84.51 0 0 1-21.79 2.91zm19.09-84.42a71.49 71.49 0 0 0-18.44 2.59c-15.26 4.09-28.51 12-37.31 22.29s-12 21.58-9.26 31.95c2.78 10.37 11.3 18.55 24 23s28.19 4.74 43.45.65c14.9-4 26.25-11.27 32.81-21a38.45 38.45 0 0 0-14.75-55.06 46.2 46.2 0 0 0-20.5-4.42z"/><path class="cls-7" d="M205.48 145a41.91 41.91 0 0 1-8.12-.78 39.45 39.45 0 0 1-29.25-50.67C172 82.14 181.22 72 194.8 64.15c28.66-16.55 61.25-14 72.65 5.79 5.54 9.59 5.31 21.74-.64 34.19s-16.81 23.62-30.68 31.62c-10.54 6.08-20.99 9.25-30.65 9.25zM233 54.24c-11.87 0-25.16 3.54-37.7 10.78-13.36 7.71-22.44 17.68-26.24 28.82a38.45 38.45 0 0 0 28.5 49.36c11.55 2.27 24.72-.6 38.08-8.32 13.68-7.9 24.43-19 30.27-31.18s6-24 .68-33.26c-6.18-10.69-18.79-16.2-33.59-16.2z"/><path class="cls-8" d="M167 164.5c-15.18 0-28.12-5.68-34.47-16.68-11.4-19.74 2.65-49.26 31.31-65.81 13.58-7.84 27-10.75 38.77-8.43a39.45 39.45 0 0 1 29.25 50.67c-3.89 11.37-13.11 21.53-26.69 29.36-12.65 7.31-26.1 10.89-38.17 10.89zm27.49-90.7c-9.49 0-19.76 3.07-30.16 9.07-28.18 16.27-42.07 45.18-30.95 64.44s43.1 21.69 71.28 5.42c26.19-15.12 35.19-38.6 22.94-59.82a37.19 37.19 0 0 0-25.2-18.36 40.93 40.93 0 0 0-7.88-.75z"/><path class="cls-9" d="M204 143.75a39.52 39.52 0 0 1-38.78-41.46c.81-12 7.1-24.19 18.18-35.27 11.31-11.31 25-18.93 38.48-21.44s25.36.4 33.19 8.23c16.12 16.12 10.19 48.27-13.21 71.67-11.08 11.08-23.28 17.37-35.27 18.18q-1.3.09-2.59.09zm27.1-98.05a49.49 49.49 0 0 0-9 .87c-13.3 2.48-26.79 10-38 21.17-21.38 21.38-24 46.39-6.68 63.72s42.34 14.7 63.72-6.68c23-23 28.94-54.53 13.21-70.25-5.79-5.82-13.86-8.83-23.25-8.83z"/><path class="cls-10" d="M168.93 173c-9.41 0-17.87-2.94-24-9.07-16.12-16.12-10.19-48.27 13.21-71.67 11.08-11.08 23.28-17.37 35.27-18.18a39.45 39.45 0 0 1 41.37 41.37c-.81 12-7.1 24.19-18.18 35.27-14.49 14.51-32.35 22.28-47.67 22.28zM196 75q-1.25 0-2.51.08c-11.75.79-23.72 7-34.63 17.89-23 23-28.94 54.53-13.21 70.25S192.88 173 215.89 150c21.38-21.38 24-46.39 6.68-63.72A37.32 37.32 0 0 0 196 75z"/><path class="cls-11" d="M203.21 142.8a39.23 39.23 0 0 1-19.67-5.42 38.18 38.18 0 0 1-18.84-25.87c-2.32-11.79.59-25.2 8.43-38.77 8-13.86 19.23-24.75 31.62-30.67s24.6-6.18 34.19-.64c9.59 5.54 15.47 16.17 16.54 29.93s-2.75 28.86-10.75 42.72c-7.84 13.58-18 22.8-29.36 26.69a37.49 37.49 0 0 1-12.16 2.03zm20.36-104.36A42.88 42.88 0 0 0 205.18 43C193 48.81 181.9 59.56 174 73.25c-7.71 13.36-10.59 26.53-8.32 38.08A38.45 38.45 0 0 0 215 139.82c11.14-3.81 21.11-12.88 28.82-26.24 7.9-13.68 11.67-28.65 10.62-42.14s-6.74-23.77-16-29.14a29.42 29.42 0 0 0-14.87-3.86z"/><path class="cls-12" d="M176.36 180.28a30.24 30.24 0 0 1-15.3-4c-9.59-5.54-15.47-16.17-16.54-29.93s2.75-28.86 10.75-42.72c7.84-13.58 18-22.8 29.36-26.69a39.45 39.45 0 0 1 50.67 29.25c2.32 11.79-.59 25.2-8.43 38.77-12.65 21.95-32.87 35.32-50.51 35.32zM196.79 76a36.5 36.5 0 0 0-11.83 2c-11.14 3.81-21.1 12.88-28.82 26.24-7.9 13.68-11.67 28.65-10.62 42.14s6.74 23.77 16 29.14a29.33 29.33 0 0 0 14.83 3.84c17.28 0 37.15-13.19 49.61-34.78 7.71-13.36 10.59-26.53 8.32-38.08A37.19 37.19 0 0 0 216 81.23 38.25 38.25 0 0 0 196.79 76z"/><path class="cls-13" d="M202.07 142.1a40.91 40.91 0 0 1-10.59-1.42 38.19 38.19 0 0 1-24.89-20.11c-5.29-10.79-5.95-24.49-1.89-39.63 8.57-32 33.45-53.17 55.46-47.28 10.7 2.87 19.12 11.61 23.72 24.63s4.81 28.59.67 44c-4.06 15.14-11.48 26.68-21.46 33.38a37.45 37.45 0 0 1-21.02 6.43zm10.54-108.43c-19.44 0-39.47 19.6-47 47.52-4 14.9-3.36 28.37 1.82 38.93a37.19 37.19 0 0 0 24.26 19.59c23.67 6.35 44-8.43 51.84-37.64 4.09-15.26 3.86-30.69-.65-43.45s-12.66-21.22-23-24a28.06 28.06 0 0 0-7.27-.95z"/><path class="cls-14" d="M187.36 185.09a29 29 0 0 1-7.52-1c-22-5.9-33-36.71-24.39-68.67 4.06-15.14 11.48-26.68 21.45-33.38a39.44 39.44 0 0 1 56.51 15.14c5.29 10.79 5.95 24.49 1.89 39.63-7.59 28.38-28.04 48.28-47.94 48.28zm-7.26-2c21.47 5.76 45.81-15.13 54.24-46.57 4-14.9 3.36-28.37-1.82-38.93A37.19 37.19 0 0 0 208.26 78c-23.67-6.35-44 8.43-51.84 37.64-8.42 31.43 2.2 61.69 23.69 67.45z"/><path class="cls-15" d="M200 141.8a38.18 38.18 0 0 1-29.25-13c-7.91-9.05-12.08-22.12-12.08-37.79 0-33.1 18.54-60 41.34-60s41.34 26.92 41.34 60c0 15.67-4.18 28.74-12.08 37.79a38.18 38.18 0 0 1-29.27 13zM200 32c-22.24 0-40.34 26.48-40.34 59 0 30.24 15.83 49.78 40.34 49.78s40.34-19.52 40.34-49.78c0-32.52-18.1-59-40.34-59z"/><path class="cls-16" d="M200 186.75c-22.79 0-41.34-26.92-41.34-60 0-15.67 4.18-28.74 12.08-37.79a39.45 39.45 0 0 1 58.5 0c7.91 9.05 12.08 22.12 12.08 37.79.02 33.08-18.53 60-41.32 60zM200 77c-24.5 0-40.34 19.54-40.34 49.78 0 32.54 18.09 59 40.34 59s40.34-26.48 40.34-59C240.34 96.5 224.5 77 200 77z"/><path class="cls-17" d="M197.93 142.1a37.46 37.46 0 0 1-21-6.39c-10-6.7-17.4-18.24-21.45-33.38-4.14-15.45-3.9-31.09.67-44s13-21.76 23.72-24.63c22-5.9 46.9 15.31 55.46 47.28 4.06 15.14 3.4 28.85-1.89 39.63a38.19 38.19 0 0 1-24.89 20.11 41 41 0 0 1-10.62 1.38zM187.39 33.67a28 28 0 0 0-7.29 1c-10.37 2.78-18.55 11.3-23 24s-4.74 28.19-.65 43.45c7.83 29.21 28.18 44 51.84 37.64a37.19 37.19 0 0 0 24.26-19.59c5.19-10.57 5.82-24 1.82-38.93-7.51-27.97-27.54-47.57-46.98-47.57z"/><path class="cls-18" d="M212.64 185.09c-19.89 0-40.34-19.89-47.94-48.26-4.06-15.14-3.4-28.85 1.89-39.63a39.44 39.44 0 0 1 56.5-15.2c10 6.7 17.4 18.24 21.46 33.38 8.57 32-2.38 62.77-24.39 68.67a29 29 0 0 1-7.52 1.04zM202.4 76.59A41.1 41.1 0 0 0 191.74 78a37.19 37.19 0 0 0-24.26 19.59c-5.19 10.57-5.82 24-1.82 38.93 8.42 31.43 32.75 52.34 54.24 46.57s32.11-36 23.69-67.45C237 91 221.37 76.59 202.4 76.59z"/><path class="cls-19" d="M196.79 142.8a37.49 37.49 0 0 1-12.15-2c-11.37-3.88-21.52-13.11-29.36-26.69-8-13.85-11.82-29-10.75-42.72s6.94-24.39 16.53-29.96c19.74-11.4 49.26 2.65 65.81 31.31 7.84 13.58 10.75 27 8.43 38.77a38.18 38.18 0 0 1-18.84 25.87 39.23 39.23 0 0 1-19.67 5.42zm-20.4-104.34a29.33 29.33 0 0 0-14.83 3.84c-9.3 5.37-15 15.72-16 29.14s2.72 28.46 10.62 42.14c7.71 13.36 17.68 22.44 28.82 26.24a38.45 38.45 0 0 0 49.36-28.5c2.27-11.55-.6-24.72-8.32-38.08-12.5-21.58-32.37-34.78-49.65-34.78z"/><path class="cls-20" d="M223.64 180.28c-17.64 0-37.87-13.37-50.51-35.27-7.84-13.57-10.75-27-8.43-38.77A39.44 39.44 0 0 1 215.36 77c11.37 3.89 21.53 13.11 29.36 26.69 8 13.85 11.82 29 10.75 42.72s-6.95 24.39-16.54 29.93a30.25 30.25 0 0 1-15.29 3.94zM203.21 76A38.25 38.25 0 0 0 184 81.23a37.2 37.2 0 0 0-18.36 25.2c-2.27 11.55.6 24.72 8.32 38.08 16.27 28.18 45.18 42.07 64.44 30.95 9.3-5.37 15-15.72 16-29.14s-2.72-28.46-10.62-42.14c-7.63-13.37-17.6-22.44-28.78-26.25A36.52 36.52 0 0 0 203.21 76z"/><path class="cls-21" d="M196 143.75q-1.29 0-2.58-.09c-12-.81-24.19-7.1-35.27-18.18-23.4-23.4-29.33-55.55-13.21-71.67 7.83-7.83 19.62-10.76 33.19-8.23S205.29 55.71 216.6 67c11.09 11.11 17.4 23.3 18.18 35.29A39.52 39.52 0 0 1 196 143.75zM168.9 45.7c-9.39 0-17.46 3-23.26 8.82-15.73 15.73-9.8 47.24 13.21 70.25 10.91 10.91 22.88 17.1 34.63 17.89a37.22 37.22 0 0 0 29.09-11.21c17.33-17.33 14.71-42.34-6.68-63.72-11.17-11.17-24.65-18.69-38-21.17a49.49 49.49 0 0 0-8.99-.86z"/><path class="cls-22" d="M231.07 173c-15.32 0-33.17-7.79-47.67-22.29-11.08-11.08-17.37-23.28-18.18-35.27a39.45 39.45 0 0 1 41.37-41.34c12 .81 24.19 7.1 35.27 18.18 23.4 23.4 29.33 55.55 13.21 71.67-6.13 6.13-14.59 9.05-24 9.05zM203.8 74.92c-9.64 0-18.75 3.76-26.37 11.39a37.19 37.19 0 0 0-11.21 29.09c.79 11.75 7 23.72 17.89 34.63 23 23 54.53 28.94 70.26 13.21S264.16 116 241.15 93c-11.97-12-25.08-18.08-37.35-18.08z"/><path class="cls-23" d="M194.52 145c-9.66 0-20.11-3.12-30.66-9.21-13.85-8-24.75-19.23-30.67-31.62s-6.18-24.6-.64-34.19c5.54-9.59 16.17-15.47 29.93-16.54s28.86 2.75 42.72 10.75c13.58 7.84 22.8 18 26.69 29.36a39.45 39.45 0 0 1-29.25 50.67 41.92 41.92 0 0 1-8.12.78zm-27.46-90.78q-2.27 0-4.5.17c-13.42 1-23.77 6.74-29.14 16-5.37 9.3-5.13 21.11.68 33.26s16.58 23.29 30.27 31.18c13.36 7.71 26.53 10.59 38.08 8.32a38.45 38.45 0 0 0 28.5-49.36C227.14 82.7 218.06 72.73 204.7 65c-12.18-7-25.37-10.78-37.64-10.78z"/><path class="cls-24" d="M233 164.5c-12 0-25.49-3.57-38.17-10.89-13.58-7.84-22.8-18-26.69-29.36a39.45 39.45 0 0 1 29.25-50.67c11.79-2.32 25.2.6 38.77 8.43 28.66 16.55 42.71 46.07 31.31 65.81-6.38 11-19.33 16.68-34.47 16.68zm-27.52-90.7a40.93 40.93 0 0 0-7.92.76 37.19 37.19 0 0 0-25.2 18.36c-12.25 21.22-3.25 44.7 22.94 59.82 28.18 16.27 60.16 13.84 71.28-5.42 11.12-19.26-2.76-48.17-30.95-64.44-10.39-6-20.63-9.08-30.15-9.08z"/><path class="cls-25" d="M190.75 146.81a72.49 72.49 0 0 1-18.7-2.63c-15.45-4.18-28.88-12.18-37.81-22.6s-12.33-22.16-9.47-32.86S136.39 69.6 149.4 65s28.59-4.81 44-.67c15.14 4.06 26.68 11.48 33.38 21.46a38.18 38.18 0 0 1 5 31.62 38.18 38.18 0 0 1-20.11 24.89 47.19 47.19 0 0 1-20.92 4.51zm-19.09-84.42a66 66 0 0 0-21.92 3.56c-12.69 4.48-21.22 12.67-24 23-2.78 10.37.51 21.72 9.26 31.95s22 18.2 37.31 22.29c14.9 4 28.37 3.36 38.93-1.82a37.19 37.19 0 0 0 19.59-24.26A37.19 37.19 0 0 0 226 86.34c-6.56-9.77-17.9-17.05-32.81-21a83.47 83.47 0 0 0-21.53-2.95z"/><path class="cls-26" d="M228.34 156.37a84.51 84.51 0 0 1-21.79-2.94c-15.14-4.06-26.68-11.43-33.38-21.43a39.44 39.44 0 0 1 15.14-56.51c10.79-5.29 24.49-5.95 39.63-1.89 32 8.57 53.17 33.45 47.28 55.46l-.48-.13.48.13c-2.87 10.7-11.61 19.12-24.63 23.72a67 67 0 0 1-22.25 3.59zm-19.15-84.42c-20.13 0-35.1 10.28-40 28.67-6.34 23.67 8.43 44 37.64 51.84 15.26 4.09 30.69 3.86 43.45-.65s21.22-12.67 24-23C280 107.29 259.12 83 227.69 74.54a71.69 71.69 0 0 0-18.5-2.59z"/></g></svg>